<?xml version="1.0" encoding="UTF-8" standalone="no"?>
<!-- Generator: Adobe Illustrator 16.0.4, SVG Export Plug-In . SVG Version: 6.00 Build 0)  -->

<svg
   xmlns:dc="http://purl.org/dc/elements/1.1/"
   xmlns:cc="http://creativecommons.org/ns#"
   xmlns:rdf="http://www.w3.org/1999/02/22-rdf-syntax-ns#"
   xmlns:svg="http://www.w3.org/2000/svg"
   xmlns="http://www.w3.org/2000/svg"
   xmlns:sodipodi="http://sodipodi.sourceforge.net/DTD/sodipodi-0.dtd"
   xmlns:inkscape="http://www.inkscape.org/namespaces/inkscape"
   version="1.1"
   id="Layer_1"
   x="0px"
   y="0px"
   width="12"
   height="12"
   viewBox="0 0 12 12"
   enable-background="new 0 0 34 34"
   xml:space="preserve"
   inkscape:version="0.48.5 r10040"
   sodipodi:docname="share.svg"
   inkscape:export-filename="/home/davo/public_html/goethe2/mod/giportfolio/pix/share.png"
   inkscape:export-xdpi="90"
   inkscape:export-ydpi="90"><metadata
     id="metadata29"><rdf:RDF><cc:Work
         rdf:about=""><dc:format>image/svg+xml</dc:format><dc:type
           rdf:resource="http://purl.org/dc/dcmitype/StillImage" /><dc:title></dc:title></cc:Work></rdf:RDF></metadata><defs
     id="defs27" /><sodipodi:namedview
     pagecolor="#ffffff"
     bordercolor="#666666"
     borderopacity="1"
     objecttolerance="10"
     gridtolerance="10"
     guidetolerance="10"
     inkscape:pageopacity="0"
     inkscape:pageshadow="2"
     inkscape:window-width="1538"
     inkscape:window-height="1264"
     id="namedview25"
     showgrid="false"
     showguides="false"
     inkscape:guide-bbox="true"
     inkscape:zoom="27.764706"
     inkscape:cx="10.702697"
     inkscape:cy="-0.44185423"
     inkscape:window-x="149"
     inkscape:window-y="59"
     inkscape:window-maximized="0"
     inkscape:current-layer="Layer_1"
     inkscape:snap-bbox="true"
     inkscape:snap-page="true"><sodipodi:guide
       orientation="0,1"
       position="27.697034,5.5466102"
       id="guide3775" /><sodipodi:guide
       orientation="0,1"
       position="27.769068,6.1949153"
       id="guide3777" /><sodipodi:guide
       orientation="1,0"
       position="1.1885593,4.1419492"
       id="guide3779" /><sodipodi:guide
       orientation="0,1"
       position="-0.57627119,26.148305"
       id="guide3781" /><sodipodi:guide
       orientation="0,1"
       position="12.569915,25.463983"
       id="guide3783" /></sodipodi:namedview><g
     id="share_2_"
     transform="matrix(0.35327137,0,0,0.35327137,-1.2048856e-5,-0.07150834)"><g
       id="right_x5F_arrow_2_"
       style="fill:#999999;fill-opacity:1"><path
         style="fill:#999999;fill-opacity:1"
         d="M 7.21875 1.34375 C 7.1872647 1.3588082 7.1875 1.4127565 7.1875 1.46875 L 7.1875 3.3125 C 6.2273084 3.3835075 2.308643 3.9023304 2.25 7.78125 C 3.0808943 5.8993734 5.8941735 5.9276084 7.1875 5.9375 L 7.1875 6.40625 L 10.21875 3.375 L 7.34375 1.375 C 7.2969415 1.3414392 7.2502353 1.3286918 7.21875 1.34375 z M 11.15625 4.0625 L 7.21875 8.03125 C 7.2447982 8.0859629 7.3031976 8.1123113 7.375 8.0625 L 11.84375 4.90625 C 12.014415 4.7917675 12.002046 4.6294746 11.84375 4.53125 L 11.15625 4.0625 z "
         transform="matrix(2.8306851,0,0,2.8306851,3.4106517e-5,0.20241759)"
         id="path5" /></g></g><path
     style="fill:#999999;fill-opacity:1"
     d="m -1.2048856e-5,3.359986 3.071570448856,0 C 3.4625345,3.3489887 3.7244987,3.1260278 3.7241189,2.8496294 l 0,-0.2519175 C 3.7245075,2.3327556 3.4556619,2.0913868 3.0715584,2.0935983 l -2.65168648,0 C 0.13356583,2.0875679 -0.00110362,2.3163129 -1.2048856e-5,2.5958124 z"
     id="rect11-0"
     inkscape:connector-curvature="0"
     sodipodi:nodetypes="cccccccc" /><rect
     y="3.0196161"
     width="1.113703"
     height="6.7563148"
     id="rect7"
     style="fill:#999999;fill-opacity:1"
     x="-1.2048856e-05" /><path
     style="fill:#999999;fill-opacity:1"
     d="M 0 9.21875 L 0 9.96875 C -0.0010915811 10.248249 0.11994392 10.47475 0.40625 10.46875 L 3.125 10.46875 L 4.375 9.21875 L 0 9.21875 z M 6.0625 9.21875 L 4.84375 10.46875 L 9.09375 10.46875 C 9.4778535 10.470961 9.7503886 10.233707 9.75 9.96875 L 9.75 9.71875 C 9.7503798 9.4423516 9.4847261 9.229747 9.09375 9.21875 L 6.0625 9.21875 z "
     id="rect11" /><g
     id="g13"
     transform="translate(0,-22)" /><g
     id="g15"
     transform="translate(0,-22)" /><g
     id="g17"
     transform="translate(0,-22)" /><g
     id="g19"
     transform="translate(0,-22)" /><g
     id="g21"
     transform="translate(0,-22)" /><g
     id="g23"
     transform="translate(0,-22)" /><path
     style="color:#000000;fill:#999999;fill-opacity:1;fill-rule:nonzero;stroke:none;stroke-width:2;marker:none;visibility:visible;display:inline;overflow:visible;enable-background:accumulate"
     d="M 12,0 0,12 1.7318124,12 12,1.6091257 z"
     id="path3911"
     inkscape:connector-curvature="0"
     sodipodi:nodetypes="ccccc" /></svg>