<?xml version="1.0" encoding="UTF-8" standalone="no"?>
<!-- Generator: Adobe Illustrator 16.0.4, SVG Export Plug-In . SVG Version: 6.00 Build 0)  -->

<svg
   xmlns:dc="http://purl.org/dc/elements/1.1/"
   xmlns:cc="http://creativecommons.org/ns#"
   xmlns:rdf="http://www.w3.org/1999/02/22-rdf-syntax-ns#"
   xmlns:svg="http://www.w3.org/2000/svg"
   xmlns="http://www.w3.org/2000/svg"
   xmlns:sodipodi="http://sodipodi.sourceforge.net/DTD/sodipodi-0.dtd"
   xmlns:inkscape="http://www.inkscape.org/namespaces/inkscape"
   version="1.1"
   id="Layer_1"
   x="0px"
   y="0px"
   width="12"
   height="12"
   viewBox="0 0 12 12"
   enable-background="new 0 0 34 34"
   xml:space="preserve"
   inkscape:version="0.48.5 r10040"
   sodipodi:docname="noshare.svg"
   inkscape:export-filename="/home/davo/public_html/goethe2/mod/giportfolio/pix/noshare.png"
   inkscape:export-xdpi="90"
   inkscape:export-ydpi="90"><metadata
     id="metadata29"><rdf:RDF><cc:Work
         rdf:about=""><dc:format>image/svg+xml</dc:format><dc:type
           rdf:resource="http://purl.org/dc/dcmitype/StillImage" /><dc:title></dc:title></cc:Work></rdf:RDF></metadata><defs
     id="defs27" /><sodipodi:namedview
     pagecolor="#ffffff"
     bordercolor="#666666"
     borderopacity="1"
     objecttolerance="10"
     gridtolerance="10"
     guidetolerance="10"
     inkscape:pageopacity="0"
     inkscape:pageshadow="2"
     inkscape:window-width="1538"
     inkscape:window-height="1264"
     id="namedview25"
     showgrid="false"
     showguides="false"
     inkscape:guide-bbox="true"
     inkscape:zoom="39.265224"
     inkscape:cx="0.5105178"
     inkscape:cy="6.2963508"
     inkscape:window-x="149"
     inkscape:window-y="59"
     inkscape:window-maximized="0"
     inkscape:current-layer="Layer_1"><sodipodi:guide
       orientation="0,1"
       position="27.697034,5.5466102"
       id="guide3775" /><sodipodi:guide
       orientation="0,1"
       position="27.769068,6.1949153"
       id="guide3777" /><sodipodi:guide
       orientation="1,0"
       position="1.1885593,4.1419492"
       id="guide3779" /><sodipodi:guide
       orientation="0,1"
       position="-0.57627119,26.148305"
       id="guide3781" /><sodipodi:guide
       orientation="0,1"
       position="12.569915,25.463983"
       id="guide3783" /></sodipodi:namedview><g
     id="g3863"
     transform="matrix(0.35327137,0,0,0.35327137,-1.2048856e-5,7.7004618)"><g
       transform="translate(0,-22)"
       id="share_2_"><g
         style="fill:#999999;fill-opacity:1"
         id="right_x5F_arrow_2_"><path
           sodipodi:nodetypes="cccccccccc"
           inkscape:connector-curvature="0"
           style="fill:#999999;fill-opacity:1"
           id="path5"
           d="M 33.519869,14.082089 20.842,23.033 c -0.271,0.188 -0.488,0.083 -0.488,-0.235 L 20.346,17.021 C 16.685,16.993 8.727,16.897 6.375,22.224 6.541,11.244 17.619,9.744 20.337,9.543 L 20.329,4.328 c 0,-0.317 0.224,-0.424 0.489,-0.234 l 12.68286,8.933915 c 0.448085,0.278043 0.50211,0.73011 0.01901,1.054174 z" /></g></g><path
       sodipodi:nodetypes="cccccccc"
       inkscape:connector-curvature="0"
       id="rect11-0"
       d="m 0,-12.28652 8.6946488,0 c 1.10673,-0.03113 1.8482682,-0.662262 1.8471932,-1.444659 l 0,-0.713099 c 0.0011,-0.750008 -0.7599172,-1.433247 -1.8471932,-1.426987 l -7.5060895,0 C 0.3781169,-15.888335 -0.0030899,-15.24083 0,-14.449655 z"
       style="fill:#999999;fill-opacity:1" /><rect
       x="0"
       style="fill:#999999;fill-opacity:1"
       id="rect7"
       height="19.125"
       width="3.1525424"
       y="-13.25" /><path
       sodipodi:nodetypes="cccccccc"
       inkscape:connector-curvature="0"
       id="rect11"
       d="m 0,4.290255 25.777807,0 c 1.10673,0.03113 1.848268,0.662262 1.847193,1.444659 l 0,0.713099 C 27.6261,7.198021 26.865083,7.88126 25.777807,7.875 l -24.5892477,0 C 0.37811694,7.89207 -0.00308993,7.244565 0,6.45339 z"
       style="fill:#999999;fill-opacity:1" /></g><g
     id="g13"
     transform="translate(0,-22)" /><g
     id="g15"
     transform="translate(0,-22)" /><g
     id="g17"
     transform="translate(0,-22)" /><g
     id="g19"
     transform="translate(0,-22)" /><g
     id="g21"
     transform="translate(0,-22)" /><g
     id="g23"
     transform="translate(0,-22)" /></svg>